<svg width="58" height="75" viewBox="0 0 58 75" fill="none" xmlns="http://www.w3.org/2000/svg">
<g filter="url(#filter0_d_101_2)">
<path fill-rule="evenodd" clip-rule="evenodd" d="M37.0435 19.4348C37.0435 19.5076 37.042 19.5801 37.0392 19.6522H37.0435V54.6522V54.8696H37.0392C36.9251 57.7703 34.5374 60.087 31.6087 60.087C28.68 60.087 26.2923 57.7703 26.1782 54.8696H26.1739V54.6522V19.6522H26.1782C26.1753 19.5801 26.1739 19.5076 26.1739 19.4348C26.1739 16.4332 28.6071 14 31.6087 14C34.6102 14 37.0435 16.4332 37.0435 19.4348ZM42.4082 20.8092C41.389 19.79 40.0066 19.2174 38.5652 19.2174L38.5652 24.6522L38.5652 30.087C40.0066 30.087 41.389 29.5144 42.4082 28.4951C43.4274 27.4759 44 26.0936 44 24.6522C44 23.2108 43.4274 21.8284 42.4082 20.8092ZM24.8653 42.2609C24.8681 42.1888 24.8696 42.1163 24.8696 42.0435C24.8696 39.0419 22.4363 36.6087 19.4348 36.6087C16.4332 36.6087 14 39.0419 14 42.0435C14 42.1163 14.0014 42.1888 14.0043 42.2609H14V48.7826H14.0387C14.0132 48.9964 14 49.2141 14 49.4348C14 52.4363 16.4332 54.8696 19.4348 54.8696C22.4363 54.8696 24.8696 52.4363 24.8696 49.4348C24.8696 49.2141 24.8564 48.9964 24.8308 48.7826H24.8696V42.2609H24.8653Z" fill="url(#paint0_linear_101_2)"/>
</g>
<defs>
<filter id="filter0_d_101_2" x="0" y="0" width="58" height="74.087" filterUnits="userSpaceOnUse" color-interpolation-filters="sRGB">
<feFlood flood-opacity="0" result="BackgroundImageFix"/>
<feColorMatrix in="SourceAlpha" type="matrix" values="0 0 0 0 0 0 0 0 0 0 0 0 0 0 0 0 0 0 127 0" result="hardAlpha"/>
<feOffset/>
<feGaussianBlur stdDeviation="7"/>
<feComposite in2="hardAlpha" operator="out"/>
<feColorMatrix type="matrix" values="0 0 0 0 1 0 0 0 0 1 0 0 0 0 1 0 0 0 0.21 0"/>
<feBlend mode="normal" in2="BackgroundImageFix" result="effect1_dropShadow_101_2"/>
<feBlend mode="normal" in="SourceGraphic" in2="effect1_dropShadow_101_2" result="shape"/>
</filter>
<linearGradient id="paint0_linear_101_2" x1="39.5" y1="13" x2="15.5" y2="60" gradientUnits="userSpaceOnUse">
<stop stop-color="#44FBFB"/>
<stop offset="1" stop-color="#71DDFF"/>
</linearGradient>
</defs>
</svg>
